<svg width="502" height="502" viewBox="0 0 502 502" fill="none" xmlns="http://www.w3.org/2000/svg">
<g clip-path="url(#clip0)">
<path d="M416.688 312.979V454.335H10V47.647H416.688V312.979Z" fill="#EEF2FF"/>
<path d="M209.288 377.863C201.874 377.863 194.462 375.035 188.806 369.379L90.32 270.894C79.008 259.582 79.008 241.241 90.32 229.929C101.633 218.617 119.972 218.617 131.285 229.929L209.288 307.932L442.552 74.669C453.865 63.357 472.204 63.357 483.517 74.669C494.829 85.981 494.829 104.322 483.517 115.634L229.771 369.38C224.114 375.035 216.702 377.863 209.288 377.863Z" fill="#3730A3"/>
<path d="M416.688 302.979C411.166 302.979 406.688 307.456 406.688 312.979V444.335H20V57.647H416.688C422.21 57.647 426.688 53.17 426.688 47.647C426.688 42.124 422.21 37.647 416.688 37.647H10C4.478 37.647 0 42.124 0 47.647V454.335C0 459.858 4.478 464.335 10 464.335H416.688C422.21 464.335 426.688 459.858 426.688 454.335V312.979C426.688 307.456 422.21 302.979 416.688 302.979Z" fill="black"/>
<path d="M416.688 229.983C411.166 229.983 406.688 234.46 406.688 239.983V266.633C406.688 272.156 411.166 276.633 416.688 276.633C422.21 276.633 426.688 272.156 426.688 266.633V239.983C426.688 234.46 422.21 229.983 416.688 229.983Z" fill="black"/>
<path d="M490.587 67.597C475.394 52.407 450.674 52.407 435.481 67.597L209.288 293.79L138.355 222.857C123.164 207.666 98.442 207.665 83.249 222.857C68.057 238.05 68.057 262.771 83.249 277.963L181.735 376.449C189.094 383.808 198.88 387.862 209.288 387.862C219.696 387.862 229.481 383.809 236.842 376.449L490.588 122.703C505.78 107.512 505.78 82.791 490.587 67.597ZM476.445 108.563L222.7 362.308C219.117 365.89 214.354 367.863 209.288 367.863C204.222 367.863 199.459 365.89 195.877 362.308L97.392 263.822C89.997 256.427 89.997 244.394 97.391 236.999C101.089 233.301 105.946 231.453 110.803 231.453C115.659 231.453 120.517 233.302 124.214 236.998L202.217 315.002C204.093 316.877 206.636 317.931 209.288 317.931C211.94 317.931 214.483 316.877 216.359 315.002L449.622 81.741C457.018 74.347 469.05 74.346 476.445 81.741C483.84 89.135 483.84 101.168 476.445 108.563Z" fill="black"/>
</g>
<defs>
<clipPath id="clip0">
<rect width="501.982" height="501.982" fill="white"/>
</clipPath>
</defs>
</svg>
