<svg width="513" height="513" viewBox="0 0 513 513" fill="none" xmlns="http://www.w3.org/2000/svg">
<path d="M256.001 511.998C397.385 511.998 512 397.383 512 255.999C512 114.615 397.385 0 256.001 0C114.617 0 0.00195312 114.615 0.00195312 255.999C0.00195312 397.383 114.617 511.998 256.001 511.998Z" fill="#3730A3"/>
<path d="M484.85 370.712C484.346 369.488 483.842 368.26 483.31 367.048C481.582 362.16 479.602 357.392 477.394 352.76C476.81 351.316 476.19 349.892 475.57 348.472C474.35 345.012 472.982 341.628 471.514 338.292C470.286 334.804 468.902 331.384 467.426 328.028C466.206 324.568 464.838 321.18 463.367 317.84C462.147 314.38 460.783 310.996 459.311 307.664C458.087 304.196 456.719 300.804 455.243 297.46C454.019 293.98 452.647 290.572 451.163 287.212C449.939 283.744 448.571 280.348 447.095 277C445.367 272.108 443.383 267.332 441.175 262.692C440.595 261.252 439.979 259.836 439.359 258.424C438.135 254.952 436.767 251.56 435.291 248.212C434.063 244.74 432.695 241.344 431.215 238C429.999 234.544 428.631 231.16 427.163 227.828C425.935 224.336 424.555 220.916 423.071 217.548C421.851 214.092 420.487 210.704 419.015 207.368C417.795 203.912 416.431 200.528 414.959 197.192C413.731 193.712 412.359 190.304 410.875 186.948C409.147 182.044 407.163 177.264 404.947 172.612C404.367 171.184 403.763 169.78 403.143 168.372C401.927 164.916 400.559 161.528 399.087 158.196C397.859 154.716 396.491 151.308 395.007 147.948C393.783 144.484 392.415 141.093 390.939 137.748C388.487 130.78 385.523 124.052 382.083 117.608C359.603 69.68 311.963 36 255.807 36C177.423 36 116.003 101.608 116.003 180C116.003 189.244 116.831 198.18 118.391 206.792C118.507 207.516 118.651 208.228 118.787 208.948C120.687 220.764 124.003 231.936 128.619 242.388C129.831 245.9 131.203 249.324 132.691 252.692C133.899 256.208 135.275 259.636 136.767 263.004C137.971 266.516 139.347 269.936 140.831 273.308C142.743 278.876 145.015 284.248 147.619 289.436C147.903 290.132 148.247 290.796 148.547 291.48C149.767 295.008 151.135 298.452 152.631 301.828C153.835 305.332 155.211 308.749 156.691 312.108C157.899 315.62 159.275 319.036 160.755 322.396C161.967 325.92 163.339 329.352 164.835 332.732C166.043 336.248 167.419 339.668 168.903 343.031C170.115 346.551 171.487 349.975 172.979 353.347C174.183 356.863 175.563 360.283 177.047 363.651C178.971 369.275 181.283 374.703 183.915 379.931C184.183 380.579 184.499 381.199 184.787 381.843C185.991 385.355 187.367 388.775 188.851 392.139C190.055 395.651 191.431 399.071 192.915 402.44C194.131 405.976 195.511 409.424 197.007 412.808C197.927 415.52 198.939 418.184 200.035 420.804V421.268V422.04V423.312V424L236.355 511.172C242.827 511.668 249.375 512 256.003 512C356.13 512 442.773 454.48 484.85 370.712Z" fill="#312E81"/>
<path d="M396.001 180C396.001 101.608 334.193 36 255.805 36C177.421 36 116.001 101.608 116.001 180C116.001 226.392 136.001 265.392 172.001 291.292V319.872C172.001 335.484 183.745 348 199.353 348H312.905C328.513 348 340.001 335.484 340.001 319.872V291.292C376.002 265.392 396.001 226.392 396.001 180Z" fill="#FFF3D9"/>
<path d="M284.002 456C284.002 466.796 271.814 476 256.126 476C240.438 476 228.002 466.796 228.002 456C228.002 445.204 240.438 436.892 256.126 436.892C271.814 436.892 284.002 445.204 284.002 456Z" fill="#242424"/>
<path d="M200.001 348V419.228L216.001 448C216.001 455.848 232.765 461.804 256.285 461.804C279.809 461.804 296.001 455.848 296.001 448L312.001 419.228V348H200.001Z" fill="#CCCCCC"/>
<path d="M228.001 448L212.001 420V348H200.001V420L216.001 448C216.001 455.848 232.765 461.804 256.285 461.804C258.709 461.804 260.605 461.696 262.913 461.568C242.794 460.437 228.001 455.036 228.001 448Z" fill="#E6E6E6"/>
<path d="M300.001 348V420L284.001 448C284.001 455.036 269.478 460.436 249.353 461.572C251.661 461.696 253.865 461.812 256.289 461.812C279.813 461.812 296.001 455.856 296.001 448.008L312.001 420.008V348H300.001V348Z" fill="#B3B3B3"/>
<path d="M241.934 284.392C239.53 284.392 237.178 283.16 235.85 280.948L193.266 209.98C191.238 206.616 192.338 202.252 195.702 200.236C199.046 198.252 203.41 199.312 205.438 202.672L248.022 273.636C250.046 276.996 248.946 281.36 245.59 283.376C244.441 284.064 243.182 284.392 241.934 284.392Z" fill="#CCCCCC"/>
<path d="M270.321 284.392C269.069 284.392 267.809 284.064 266.673 283.376C263.305 281.36 262.217 276.996 264.237 273.636L306.821 202.672C308.857 199.308 313.237 198.252 316.549 200.236C319.929 202.252 321.013 206.616 318.989 209.98L276.405 280.936C275.078 283.16 272.717 284.392 270.321 284.392Z" fill="#CCCCCC"/>
<path d="M227.741 224.068C224.965 224.068 222.401 224.368 221.261 221.792L208.934 196H199.35C195.434 196 192.262 191.92 192.262 188C192.262 184.08 195.434 180 199.35 180H213.542C216.342 180 218.898 180.616 220.03 183.184L225.562 195.124L235.014 153.548C235.698 150.584 238.17 148.256 241.198 147.94C244.37 147.676 247.114 149.22 248.379 151.972L268.019 194.6L277.602 152.428C278.262 149.464 280.762 147.248 283.786 146.932C286.986 146.64 289.714 149.312 290.978 152.072L303.266 180H312.898C316.818 180 319.99 184.08 319.99 188C319.99 191.92 316.818 196 312.898 196H298.702C295.934 196 293.41 192.44 292.246 189.92L286.79 176.996L277.234 218.58C276.566 221.54 274.074 223.508 271.05 223.824C267.982 224.168 265.142 222.376 263.871 219.612L244.207 176.84L234.655 218.58C233.979 221.56 231.463 223.756 228.407 224.048C228.197 224.064 227.966 224.068 227.741 224.068Z" fill="#CCCCCC"/>
<path d="M224.002 348V277.292C224.002 269.488 234.13 264 241.934 264H270.322C278.122 264 288.002 269.488 288.002 277.292V348H224.002Z" fill="#F5F5F5"/>
<path d="M270.321 264H256.125C263.933 264 268.001 269.488 268.001 277.292V348H288.001V277.292C288.001 269.488 278.121 264 270.321 264Z" fill="#E6E6E6"/>
<path d="M256.126 264H241.934C234.13 264 224.002 269.488 224.002 277.292V348H244.002V277.292C244.001 269.488 248.326 264 256.126 264Z" fill="white"/>
<path d="M189.786 88.072C164.906 106.096 147.582 133.776 143.562 168H186.602C190.686 148.444 203.31 129.848 220.482 119.824L189.786 88.072Z" fill="white"/>
</svg>
